<svg xmlns="http://www.w3.org/2000/svg" version="1.1" xmlns:xlink="http://www.w3.org/1999/xlink" xmlns:svgjs="http://svgjs.dev/svgjs" width="1500" height="659" viewBox="0 0 1500 659"><g transform="matrix(1,0,0,1,-0.9090909090909918,-1.5113975507352393)"><svg viewBox="0 0 396 174" data-background-color="#ffffff" preserveAspectRatio="xMidYMid meet" height="659" width="1500" xmlns="http://www.w3.org/2000/svg" xmlns:xlink="http://www.w3.org/1999/xlink"><g id="tight-bounds" transform="matrix(1,0,0,1,0.2400000000000091,0.39906399670398685)"><svg viewBox="0 0 395.52 173.20187200659203" height="173.20187200659203" width="395.52"><g><svg viewBox="0 0 395.52 173.20187200659203" height="173.20187200659203" width="395.52"><g transform="matrix(1,0,0,1,0,107.04570541456337)"><svg viewBox="0 0 395.52 66.15616659202865" height="66.15616659202865" width="395.52"><g id="textblocktransform"><svg viewBox="0 0 395.52 66.15616659202865" height="66.15616659202865" width="395.52" id="textblock"><g><svg viewBox="0 0 395.52 66.15616659202865" height="66.15616659202865" width="395.52"><g transform="matrix(1,0,0,1,0,0)"><svg width="395.52" viewBox="0.05 -37.1 223.29 37.35" height="66.15616659202865" data-palette-color="#61777f"><path d="M0.05 0L15.5-35 21.55-35 36.85 0 30.55 0 18.35-29.05 6.2 0 0.05 0ZM7.75-8.1L7.75-13.1 28.7-13.1 28.7-8.1 7.75-8.1ZM41.5-35L55.45-35Q62.05-35 65.67-31.88 69.3-28.75 69.3-23.1L69.3-23.1Q69.3-17.2 65.67-13.93 62.05-10.65 55.45-10.65L55.45-10.65 44.8-10.65 47.4-13.25 47.4 0 41.5 0 41.5-35ZM44.8-15.7L55.2-15.7Q59.25-15.7 61.45-17.48 63.65-19.25 63.65-22.95L63.65-22.95Q63.65-26.5 61.45-28.23 59.25-29.95 55.2-29.95L55.2-29.95 44.8-29.95 47.4-32.55 47.4-13.1 44.8-15.7ZM75.14 0L75.14-35 81.05-35 81.05-16.2 97.75-35 104.69-35 81.05-9.05 81.05 0 75.14 0ZM86.59-16.15L90.5-20.85 105.59 0 98.5 0 86.59-16.15ZM120.84-26.8L120.84-26.8Q124.54-26.8 127.12-25.18 129.69-23.55 131.07-20.53 132.44-17.5 132.39-13.3L132.39-13.3Q132.44-9.1 131.09-6.05 129.74-3 127.17-1.38 124.59 0.25 120.94 0.25L120.94 0.25Q117.14 0.25 114.27-1.48 111.39-3.2 109.79-6.28 108.19-9.35 108.19-13.35L108.19-13.35Q108.19-17.35 109.79-20.38 111.39-23.4 114.24-25.1 117.09-26.8 120.84-26.8ZM122.14-22.15L122.14-22.15Q119.74-22.15 117.89-21 116.04-19.85 115.02-17.82 113.99-15.8 113.94-13.2L113.94-13.2Q113.99-10.6 115.02-8.6 116.04-6.6 117.89-5.45 119.74-4.3 122.14-4.3L122.14-4.3Q124.54-4.3 126.39-5.45 128.24-6.6 129.27-8.6 130.29-10.6 130.29-13.2L130.29-13.2Q130.29-15.85 129.27-17.85 128.24-19.85 126.39-21 124.54-22.15 122.14-22.15ZM130.29 0L130.29-37.1 136.04-37.1 136.04 0 130.29 0ZM161.44-11.85L153.49-11.85Q150.69-11.85 149.34-11 147.99-10.15 147.99-8.2L147.99-8.2Q147.99-6.35 149.36-5.25 150.74-4.15 153.14-4.15L153.14-4.15Q155.29-4.15 156.99-4.9 158.69-5.65 159.69-6.93 160.69-8.2 160.74-9.8L160.74-9.8 161.84-4.95Q160.59-2.35 158.04-1.05 155.49 0.25 151.94 0.25L151.94 0.25Q149.09 0.25 146.99-0.85 144.89-1.95 143.74-3.83 142.59-5.7 142.59-8L142.59-8Q142.59-11.6 145.22-13.75 147.84-15.9 152.64-15.95L152.64-15.95 161.44-15.95 161.44-11.85ZM160.74 0L160.69-16.85Q160.69-19.45 159.09-20.9 157.49-22.35 154.34-22.35L154.34-22.35Q152.44-22.35 150.47-21.65 148.49-20.95 146.49-19.6L146.49-19.6 144.14-23.3Q145.99-24.45 147.64-25.2 149.29-25.95 151.16-26.35 153.04-26.75 155.59-26.75L155.59-26.75Q160.74-26.75 163.51-24.28 166.29-21.8 166.34-17.45L166.34-17.45 166.39 0 160.74 0ZM191.34-24.15L189.24-20.1Q187.49-21.15 185.41-21.78 183.34-22.4 181.59-22.4L181.59-22.4Q179.89-22.4 178.79-21.75 177.69-21.1 177.69-19.6L177.69-19.6Q177.69-18.35 178.71-17.63 179.74-16.9 181.34-16.4 182.94-15.9 184.74-15.35 186.54-14.8 188.16-13.93 189.79-13.05 190.79-11.55 191.79-10.05 191.79-7.6L191.79-7.6Q191.79-4.9 190.36-3.18 188.94-1.45 186.61-0.63 184.29 0.2 181.59 0.2L181.59 0.2Q178.69 0.2 175.79-0.75 172.89-1.7 170.89-3.5L170.89-3.5 172.94-7.4Q174.69-5.85 177.19-4.98 179.69-4.1 181.84-4.1L181.84-4.1Q183.09-4.1 184.06-4.42 185.04-4.75 185.61-5.4 186.19-6.05 186.19-7.1L186.19-7.1Q186.19-8.5 185.19-9.3 184.19-10.1 182.59-10.63 180.99-11.15 179.19-11.68 177.39-12.2 175.81-13.05 174.24-13.9 173.24-15.35 172.24-16.8 172.24-19.2L172.24-19.2Q172.24-21.9 173.64-23.58 175.04-25.25 177.26-26.03 179.49-26.8 182.04-26.8L182.04-26.8Q184.54-26.8 187.04-26.1 189.54-25.4 191.34-24.15L191.34-24.15ZM217.59 0L217.59-15Q217.59-18.1 215.89-19.88 214.19-21.65 211.19-21.65L211.19-21.65Q207.64-21.6 205.61-19.15 203.59-16.7 203.59-13.05L203.59-13.05 201.99-13.05Q201.99-18 203.39-21 204.78-24 207.36-25.38 209.94-26.75 213.44-26.75L213.44-26.75Q216.54-26.75 218.76-25.5 220.99-24.25 222.16-21.98 223.34-19.7 223.34-16.5L223.34-16.5 223.34 0 217.59 0ZM197.84 0L197.84-37.1 203.59-37.1 203.59 0 197.84 0Z" opacity="1" transform="matrix(1,0,0,1,0,0)" fill="#61777f" class="wordmark-text-0" data-fill-palette-color="primary" id="text-0"></path></svg></g></svg></g></svg></g></svg></g><g transform="matrix(1,0,0,1,133.17514155149968,0)"><svg viewBox="0 0 129.1697168970006 91.42782223018361" height="91.42782223018361" width="129.1697168970006"><g><svg xmlns="http://www.w3.org/2000/svg" xmlns:xlink="http://www.w3.org/1999/xlink" version="1.1" x="8" y="0" viewBox="11.001000000000001 19.414 78.91 63.75" enable-background="new 0 0 100 100" xml:space="preserve" height="91.42782223018361" width="113.1697168970006" class="icon-icon-0" data-fill-palette-color="accent" id="icon-0"><circle cx="18.132" cy="26.545" r="7.1" fill="#c8c8c8" data-fill-palette-color="accent"></circle><rect x="33.619" y="21.486" width="56.292" height="10.118" fill="#c8c8c8" data-fill-palette-color="accent"></rect><circle cx="18.132" cy="51.219" r="7.1" fill="#c8c8c8" data-fill-palette-color="accent"></circle><rect x="33.619" y="46.159" width="56.292" height="10.118" fill="#c8c8c8" data-fill-palette-color="accent"></rect><circle cx="18.132" cy="76.033" r="7.1" fill="#c8c8c8" data-fill-palette-color="accent"></circle><rect x="33.619" y="70.975" width="56.292" height="10.117" fill="#c8c8c8" data-fill-palette-color="accent"></rect></svg></g></svg></g><g><rect width="133.17514155149968" height="5.966031376433067" y="84.46179085375053" x="262.3448584485003" fill="#c8c8c8" data-fill-palette-color="accent"></rect><rect width="133.17514155149968" height="5.966031376433067" y="84.46179085375053" x="0" fill="#c8c8c8" data-fill-palette-color="accent"></rect><rect width="133.17514155149968" height="5.966031376433067" y="72.5297281008844" x="262.3448584485003" fill="#c8c8c8" data-fill-palette-color="accent"></rect><rect width="133.17514155149968" height="5.966031376433067" y="72.5297281008844" x="0" fill="#c8c8c8" data-fill-palette-color="accent"></rect></g></svg></g><defs></defs></svg><rect width="395.52" height="173.20187200659203" fill="none" stroke="none" visibility="hidden"></rect></g></svg></g></svg>